<?xml version="1.0" standalone="no"?>
<!DOCTYPE svg PUBLIC "-//W3C//DTD SVG 20010904//EN"
 "http://www.w3.org/TR/2001/REC-SVG-20010904/DTD/svg10.dtd">
<svg version="1.0" xmlns="http://www.w3.org/2000/svg"
 width="1024.000000pt" height="1024.000000pt" viewBox="0 0 1024.000000 1024.000000"
 preserveAspectRatio="xMidYMid meet">
<metadata>
Created by potrace 1.14, written by Peter Selinger 2001-2017
</metadata>
<g transform="translate(0.000000,1024.000000) scale(0.100000,-0.100000)"
fill="#000000" stroke="none">
<path d="M0 5120 l0 -5120 5120 0 5120 0 0 5120 0 5120 -5120 0 -5120 0 0
-5120z m5287 3021 c31 8 84 10 176 6 151 -7 653 -53 742 -68 33 -5 146 -23
250 -40 105 -16 215 -34 245 -40 81 -14 279 -19 287 -6 3 5 1 7 -5 3 -6 -3
-13 -2 -17 4 -8 13 -2 12 70 -6 33 -8 100 -24 149 -34 48 -11 105 -24 125 -30
61 -16 238 -40 297 -40 30 0 87 -5 126 -11 64 -10 79 -17 140 -65 37 -30 72
-63 78 -74 12 -23 13 -110 1 -129 -6 -9 1 -30 22 -64 19 -31 30 -62 29 -81 -1
-17 -1 -108 -1 -202 1 -95 -5 -197 -11 -232 -12 -60 -12 -63 12 -94 34 -45 74
-125 82 -168 8 -36 22 -112 51 -260 26 -139 57 -378 62 -484 4 -88 3 -101 -13
-113 -27 -20 -33 -16 -40 27 -4 22 -10 40 -14 40 -4 0 -18 -20 -31 -45 -13
-25 -27 -45 -31 -45 -5 0 -8 16 -8 35 0 33 -2 35 -31 35 l-32 0 6 -55 c9 -93
-22 -81 -44 18 -8 31 -17 57 -20 57 -9 0 -36 -73 -47 -125 l-9 -40 -7 33 c-4
17 -12 32 -17 32 -5 0 -9 14 -9 30 0 17 -8 40 -19 51 -18 20 -18 19 -25 -18
-3 -21 -6 -68 -6 -105 0 -38 -4 -68 -9 -68 -5 0 -16 -3 -25 -6 -14 -5 -16 6
-17 82 0 49 -4 98 -8 109 -9 22 -10 17 -26 -77 -3 -21 -11 -38 -17 -38 -16 0
-2 657 17 814 15 127 29 164 102 275 30 45 37 67 43 128 4 43 3 91 -2 111 -8
32 -28 331 -28 430 0 18 -6 34 -12 36 -7 2 -38 12 -68 21 -30 10 -80 21 -110
25 -30 5 -107 18 -170 29 -63 12 -144 26 -180 32 -96 16 -150 25 -305 53 -624
114 -1215 200 -1525 222 -75 6 -100 11 -120 28 -14 12 -51 37 -83 56 -31 19
-57 38 -57 42 0 5 10 4 21 -3 16 -8 32 -8 66 2z m1390 -57 c-7 -7 -37 7 -37
17 0 6 9 5 21 -1 11 -7 19 -14 16 -16z m133 -28 c0 -11 -19 -15 -25 -6 -3 5 1
10 9 10 9 0 16 -2 16 -4z m124 -35 c17 -6 17 -8 4 -14 -20 -7 -58 2 -58 14 0
11 27 11 54 0z m344 -2063 c-3 -284 -4 -294 -26 -336 -29 -54 -93 -125 -147
-162 -307 -210 -933 -373 -1620 -420 -319 -22 -971 -6 -1225 30 -231 33 -296
44 -405 66 -437 90 -684 192 -841 348 -99 100 -103 116 -105 458 -1 148 2 269
5 270 3 2 21 -9 39 -23 47 -38 211 -132 303 -175 228 -106 674 -218 1033 -259
75 -9 168 -20 206 -26 107 -17 845 -24 1005 -10 169 14 380 38 445 51 28 5 91
17 140 26 187 34 523 130 715 204 30 12 66 25 80 30 82 27 341 171 370 205 7
8 17 15 22 15 6 0 8 -113 6 -292z m397 147 c-9 -88 -15 -115 -27 -115 -10 0
-3 163 9 205 11 39 25 -27 18 -90z m-395 -1412 c0 -309 -15 -376 -97 -454 -86
-81 -160 -131 -286 -193 -425 -209 -1068 -326 -1792 -326 -369 0 -800 35
-1060 85 -38 7 -88 16 -110 20 -183 30 -448 112 -612 190 -192 91 -295 171
-356 275 l-32 55 -5 263 c-4 206 -2 262 8 262 6 0 12 -4 12 -8 0 -15 105 -86
195 -133 153 -80 324 -138 568 -195 252 -58 495 -97 757 -120 200 -17 876 -19
1096 -4 267 19 641 75 814 120 19 5 82 21 139 35 286 71 589 199 690 292 25
23 52 42 59 43 9 0 12 -48 12 -207z m-20 -1221 c0 -201 -2 -220 -21 -257 -49
-93 -196 -213 -368 -300 -89 -44 -389 -165 -411 -165 -6 0 -39 -9 -73 -20
-220 -71 -671 -141 -1027 -160 -440 -24 -1010 16 -1365 96 -420 96 -613 162
-810 278 -85 50 -197 153 -233 215 l-27 46 0 237 c0 131 2 238 5 238 3 0 25
-16 50 -36 189 -151 445 -265 795 -354 508 -129 1088 -175 1710 -135 405 26
690 79 1080 202 260 82 490 188 615 282 36 27 68 50 73 50 4 1 7 -97 7 -217z
m-8 -1485 c-25 -56 -109 -147 -180 -193 -146 -97 -386 -191 -647 -253 -71 -17
-143 -35 -160 -40 -16 -5 -57 -13 -90 -16 -33 -4 -73 -11 -90 -16 -42 -12
-340 -46 -530 -59 -418 -30 -1085 -6 -1425 51 -480 81 -795 179 -996 312 -91
60 -147 119 -180 190 -25 56 -27 68 -32 271 -2 117 -2 233 2 259 l7 47 31 -30
c81 -81 338 -212 553 -282 141 -45 440 -120 575 -143 361 -61 603 -79 1050
-79 373 0 406 1 600 27 113 15 225 31 250 36 25 5 70 14 100 20 326 63 653
170 885 288 71 36 236 147 265 178 l25 27 3 -277 c2 -251 1 -280 -16 -318z"/>
<path d="M7680 7751 c0 -11 52 -21 104 -20 l41 1 -50 13 c-61 16 -95 18 -95 6z"/>
<path d="M7913 7290 c0 -30 2 -43 4 -27 2 15 2 39 0 55 -2 15 -4 2 -4 -28z"/>
<path d="M7981 6255 c0 -27 4 -57 9 -65 8 -12 10 -10 9 10 0 14 -4 43 -8 65
l-9 40 -1 -50z"/>
</g>
</svg>
